<?xml version="1.0" encoding="UTF-8"?>
<svg xmlns="http://www.w3.org/2000/svg"
 width="700pt" height="700pt" viewBox="0 0 700 700">
<g transform="translate(0,700) scale(0.1,-0.1)"
fill="black" stroke="none">
<path d="M0 3500 l0 -3500 545 0 545 0 0 58 c0 142 22 698 35 902 154 2319
800 4585 1620 5685 88 119 247 300 292 334 l28 20 -1532 1 -1533 0 0 -3500z"/>
<path d="M5341 5899 c-377 -44 -702 -273 -872 -614 -35 -71 -70 -161 -86 -220
-24 -91 -27 -116 -27 -280 0 -163 3 -189 27 -278 28 -106 94 -255 151 -339
188 -283 498 -468 835 -498 85 -7 99 -6 121 9 50 36 40 53 -77 133 -129 88
-275 224 -356 332 -71 96 -159 273 -186 376 -82 305 -20 620 176 892 78 109
248 269 372 352 110 73 120 90 75 125 -29 22 -39 23 -153 10z"/>
<path d="M3800 3275 c-8 -2 -49 -9 -90 -15 -395 -63 -764 -338 -944 -705 -98
-199 -136 -361 -136 -585 0 -274 66 -497 217 -728 107 -166 299 -338 483 -436
211 -111 563 -183 638 -130 42 29 25 52 -102 138 -142 96 -319 261 -411 385
-78 103 -174 287 -209 399 -77 245 -75 517 4 754 62 184 178 373 322 524 105
109 182 174 316 264 53 36 98 72 100 82 2 9 -7 26 -19 37 -19 17 -35 21 -88
20 -36 -1 -73 -3 -81 -4z"/>
</g>
</svg>
