<?xml version="1.0" encoding="UTF-8"?>
<svg xmlns="http://www.w3.org/2000/svg" width="512pt" height="512pt"
viewBox="0 0 512 512" preserveAspectRatio="xMidYMid meet">
<g transform="translate(0,512) scale(0.1,-0.1)" fill="#000000" stroke="none">
<path d="M0 2560 l0 -2560 280 0 c233 0 280 2 280 14 0 8 11 24 25 37 13 13
25 29 25 36 0 7 9 17 20 23 24 13 16 34 -11 27 -15 -4 -19 3 -25 39 -9 65 1
92 41 108 44 19 44 29 3 41 -22 7 -34 17 -36 32 -3 17 1 20 17 16 20 -5 28 12
21 42 -2 6 -4 31 -6 56 -2 25 -8 58 -14 73 -10 27 -9 28 15 22 24 -6 25 -5 25
43 0 27 5 62 10 77 7 16 7 30 2 33 -5 3 -10 29 -10 56 -2 82 -7 133 -13 139
-3 4 3 25 14 46 16 35 18 45 7 70 -9 23 -10 33 -1 44 7 9 9 29 5 55 -4 28 -3
41 5 41 6 0 11 -9 11 -21 0 -11 4 -17 10 -14 5 3 10 15 10 25 0 10 6 20 13 23
8 3 3 13 -15 30 -19 18 -28 21 -28 12 0 -8 -9 -15 -20 -15 -11 0 -20 5 -20 11
0 16 23 36 37 32 6 -2 15 2 19 9 7 11 16 125 15 196 -1 12 4 22 9 22 14 0 13
37 -1 42 -14 5 -2 68 12 68 5 0 9 15 9 33 0 18 5 38 12 45 8 8 8 15 0 25 -12
14 -8 47 11 85 9 18 8 25 -2 32 -17 10 -5 31 13 24 13 -5 14 0 17 54 1 15 6
30 13 34 7 5 5 8 -6 8 -23 0 -23 3 7 75 29 70 30 85 10 85 -21 0 -19 20 3 21
11 0 12 2 4 6 -10 4 -9 8 5 18 12 9 17 24 15 48 -2 19 1 38 7 41 6 4 8 13 4
21 -3 9 0 22 7 30 7 8 10 21 7 29 -3 7 1 24 10 35 8 12 13 31 10 42 -4 15 1
23 19 29 28 11 31 28 7 45 -16 12 -15 17 17 66 28 44 34 64 35 106 0 30 5 55
11 57 16 6 46 99 39 117 -6 17 19 84 35 94 15 9 12 25 -6 25 -25 0 -15 74 11
79 24 4 37 21 30 39 -2 6 2 12 10 12 21 0 19 47 -2 59 -10 6 -12 11 -5 11 7 0
12 13 12 30 0 17 4 30 8 30 5 0 14 28 20 62 6 34 16 64 21 67 5 3 8 25 8 48
-1 27 5 48 16 61 10 11 17 32 15 50 -1 16 3 37 10 45 7 8 10 21 6 30 -3 10 4
22 21 33 18 12 25 23 21 37 -5 22 11 64 36 89 10 10 14 25 11 37 -3 12 -1 21
6 21 6 0 11 5 11 10 0 6 -7 10 -15 10 -8 0 -15 7 -15 16 0 20 25 45 42 42 7
-2 14 6 14 17 1 11 2 28 3 38 1 9 6 16 12 15 7 -2 16 13 21 32 6 19 13 40 18
45 10 12 40 130 40 156 0 14 7 19 25 19 32 0 43 25 21 49 -20 22 -21 51 -1 51
8 0 15 8 15 19 0 10 7 25 16 32 15 12 16 11 10 -11 -8 -25 -8 -25 8 -4 14 20
14 25 0 53 -20 40 -13 59 26 72 19 7 30 18 30 29 0 11 9 26 21 34 19 13 20 20
14 65 -6 43 -4 51 9 51 9 0 16 -7 16 -15 0 -8 7 -15 16 -15 11 0 14 5 9 18
-19 47 -16 60 11 50 4 -2 10 7 15 20 5 12 17 22 27 22 30 0 42 21 42 72 0 31
6 55 17 68 21 24 43 26 43 5 0 -16 9 -19 27 -7 12 8 13 62 0 62 -5 0 -5 5 -2
10 4 6 23 9 43 8 34 -3 37 -1 42 32 3 20 10 41 14 48 10 17 26 15 26 -3 0 -24
17 -18 24 8 3 13 18 37 33 53 24 25 53 69 53 80 0 2 -468 4 -1040 4 l-1040 0
0 -2560z"/>
<path d="M4440 4700 c-14 -5 -69 -13 -124 -19 -54 -7 -107 -16 -117 -22 -11
-5 -29 -7 -41 -3 -12 4 -24 1 -29 -7 -4 -7 -19 -14 -33 -14 -13 -1 -31 -6 -38
-12 -7 -5 -33 -21 -58 -34 -25 -13 -57 -33 -72 -44 -14 -11 -37 -28 -49 -37
-13 -10 -31 -18 -40 -18 -14 0 -109 -94 -109 -109 0 -3 -13 -15 -29 -26 -17
-10 -39 -36 -51 -57 -12 -21 -25 -38 -31 -38 -5 0 -9 -6 -9 -13 0 -7 -11 -29
-25 -48 -13 -20 -21 -39 -18 -43 4 -3 2 -6 -4 -6 -6 0 -14 -12 -18 -27 -3 -15
-12 -32 -20 -37 -11 -9 -36 -172 -34 -221 6 -146 10 -177 24 -191 8 -9 17 -27
20 -42 3 -15 15 -44 26 -65 11 -21 17 -42 14 -47 -3 -5 0 -12 6 -16 6 -3 18
-22 26 -41 8 -19 22 -37 32 -40 12 -3 17 -15 18 -38 1 -26 10 -42 42 -70 23
-21 41 -42 41 -47 0 -5 32 -41 70 -79 39 -39 70 -74 70 -80 0 -5 10 -14 23
-19 28 -13 53 -28 98 -62 20 -16 42 -28 48 -28 6 0 16 -9 23 -20 7 -11 23 -20
35 -20 12 0 25 -4 28 -10 3 -5 28 -12 55 -16 28 -4 50 -12 50 -18 0 -17 106
-35 225 -38 92 -3 100 -2 97 15 -2 11 4 24 14 31 15 12 13 16 -20 47 -20 19
-51 48 -70 66 -19 17 -52 41 -74 52 -22 11 -48 31 -59 43 -10 13 -34 34 -53
48 -47 32 -71 60 -63 73 3 5 1 7 -4 4 -6 -4 -21 4 -34 17 -13 12 -36 31 -51
41 -16 9 -28 22 -28 28 0 5 -14 23 -31 39 -41 40 -79 97 -79 119 0 12 -10 21
-25 25 -19 5 -25 13 -25 35 0 16 -4 29 -10 29 -14 0 -66 60 -62 72 1 6 -4 21
-12 33 -8 12 -18 57 -22 99 -4 42 -10 76 -13 76 -21 0 14 135 42 163 10 10 16
25 13 32 -2 7 2 16 10 19 8 3 14 11 13 18 -4 31 2 46 23 55 14 6 23 19 23 33
0 17 7 26 25 30 18 4 25 13 25 30 0 22 11 33 48 44 10 3 17 15 17 31 0 15 7
28 18 32 9 3 31 18 47 33 17 16 39 30 50 32 12 2 19 11 18 22 0 10 10 22 25
29 15 7 35 20 44 30 10 9 23 17 30 17 6 0 21 9 32 19 22 20 142 71 168 71 9 0
21 7 28 15 11 13 10 21 -1 43 -23 44 -44 51 -99 32z"/>
<path d="M2940 2530 c-8 -4 -25 -12 -37 -18 -13 -7 -39 -12 -58 -12 -24 0 -35
-5 -35 -15 0 -8 -6 -16 -12 -16 -7 -1 -23 -3 -35 -4 -13 -1 -28 -7 -35 -12 -7
-6 -34 -18 -60 -28 -27 -10 -48 -23 -48 -29 0 -6 -13 -17 -30 -24 -16 -8 -30
-20 -30 -27 0 -8 -16 -19 -34 -26 -19 -7 -33 -16 -30 -20 7 -12 -27 -49 -53
-60 -16 -6 -23 -17 -23 -34 0 -14 -4 -25 -8 -25 -5 0 -15 -11 -22 -25 -7 -13
-32 -33 -55 -44 -46 -21 -62 -46 -45 -67 9 -9 2 -22 -24 -52 -20 -22 -36 -45
-36 -53 0 -7 -12 -23 -27 -35 -24 -19 -28 -29 -28 -73 0 -29 -5 -55 -12 -59
-6 -4 -13 -20 -15 -35 -1 -15 -7 -27 -12 -26 -17 2 -24 -25 -21 -85 1 -34 -2
-70 -8 -81 -11 -22 -11 -83 2 -151 5 -25 5 -47 0 -50 -5 -3 -5 -13 0 -22 22
-43 31 -70 36 -102 11 -76 18 -100 30 -100 8 0 11 -8 8 -20 -3 -11 0 -20 6
-20 6 0 17 -16 26 -35 8 -20 28 -50 45 -66 16 -17 30 -39 30 -49 0 -11 9 -24
20 -30 11 -6 20 -20 20 -30 0 -15 7 -20 25 -20 19 0 25 -5 25 -22 0 -15 16
-36 42 -58 23 -19 57 -49 76 -67 19 -18 42 -35 52 -38 10 -3 25 -17 34 -30 10
-16 26 -25 41 -25 14 0 25 -4 25 -10 0 -5 9 -10 20 -10 11 0 20 -4 20 -8 0
-18 111 -82 143 -82 18 0 52 -9 75 -20 26 -13 70 -22 114 -25 39 -2 76 -9 82
-15 5 -5 18 -10 27 -10 9 0 22 -7 29 -15 14 -17 35 -21 25 -4 -8 12 14 69 26
69 11 0 11 41 0 58 -10 16 -58 42 -76 42 -21 0 -75 50 -69 64 5 14 -66 66 -90
66 -9 0 -20 9 -26 20 -6 11 -18 20 -26 20 -8 0 -28 7 -44 15 -23 12 -30 22
-30 45 0 17 -4 30 -8 30 -5 0 -18 9 -30 20 -12 12 -22 19 -22 16 0 -3 -11 5
-24 17 -13 12 -31 28 -40 35 -17 14 -23 47 -6 37 6 -3 10 -4 10 -1 0 3 -17 17
-39 30 -30 20 -94 103 -96 126 0 3 -3 10 -7 16 -11 17 3 25 20 12 12 -10 14
-9 10 7 -2 11 -10 19 -17 17 -7 -1 -10 2 -6 8 7 11 -17 40 -34 40 -14 0 -52
51 -45 61 3 5 0 9 -6 9 -7 0 -9 8 -5 19 4 14 0 23 -15 31 -25 13 -30 73 -5 64
18 -7 18 -6 0 46 -12 33 -12 46 -3 63 7 12 13 40 13 61 1 22 6 41 13 44 6 2 8
10 5 17 -3 8 7 35 21 61 14 25 23 50 20 55 -3 5 6 9 20 9 27 0 35 14 15 25 -7
5 -6 12 3 23 7 10 22 34 32 55 11 20 22 37 27 37 4 0 10 7 13 16 4 12 2 15 -9
10 -9 -3 -15 0 -15 9 0 8 12 17 28 21 15 3 33 7 40 10 14 4 17 24 3 24 -5 0
-7 9 -4 21 5 18 11 20 47 15 40 -6 43 -5 104 55 63 64 76 85 44 77 -13 -4 -18
1 -19 15 -2 15 1 17 10 8 19 -19 55 -13 81 14 14 14 32 25 39 25 19 0 30 42
14 53 -7 5 2 5 21 2 23 -5 32 -3 34 7 0 7 2 18 2 24 2 17 27 44 41 44 8 0 27
11 43 25 17 14 34 25 40 25 36 0 36 92 0 111 -11 6 -68 13 -126 15 -59 3 -111
6 -117 8 -5 2 -17 0 -25 -4z"/>
</g>
</svg>
