<?xml version="1.0" encoding="UTF-8"?>
<svg viewBox="0 0 100 92" xmlns="http://www.w3.org/2000/svg">
<polygon fill="#E24329" points="49 90.2 49 90.2 67.1 35.3 30.9 35.3"/>
<polygon fill="#FC6D26" points="49 90.2 30.9 35.3 5.7 35.3"/>
<g transform="translate(0.000000, 0.248500)">
<path d="M5.6748,35.0918 L0.1838,51.7748 C-0.3142,53.2888 0.2228,54.9618 1.5358,55.9058 L48.9878,89.9998 L5.6748,35.0918 Z" fill="#FCA326"/>
<path d="M5.6807,35.0918 L30.9687,35.0918 L20.0857,2.0208 C19.5287,0.3278 17.1017,0.3278 16.5247,2.0208 L5.6807,35.0918 Z" fill="#E24329"/>
<polygon fill="#FC6D26" points="49.0098 89.9814 67.0558 35.0734 92.3438 35.0734"/>
<path d="M92.3252,35.0918 L97.8162,51.7748 C98.3142,53.2888 97.7772,54.9618 96.4642,55.9058 L49.0122,89.9808 L92.3252,35.0918 Z" fill="#FCA326"/>
<path d="M92.3389,35.0918 L67.0509,35.0918 L77.9139,2.0208 C78.4719,0.3278 80.8989,0.3278 81.4759,2.0208 L92.3389,35.0918 Z" fill="#E24329"/>
</g>
</svg>
