<?xml version="1.0" encoding="UTF-8"?>
<svg viewBox="0 0 100 92" xmlns="http://www.w3.org/2000/svg">
<polygon fill="#E24329" points="49 90.2 49 90.2 67.1 35.3 30.9 35.3"/>
<polygon fill="#FC6D26" points="49 90.2 30.9 35.3 5.7 35.3"/>
<g transform="translate(0.000000, 0.248500)">
<path d="M5.7,35.0918 L0.2,51.7748 C-0.3,53.2888 0.2,54.9618 1.5,55.9058 L49,89.9998 L5.7,35.0918 Z" fill="#FCA326"/>
<path d="M5.7,35.0918 L31,35.0918 L20,2.0208 C19.5,0.3 17.1,0.3278 16.5,2.0208 L5.7,35.0918 Z" fill="#E24329"/>
<polygon fill="#FC6D26" points="49 90 67 35 92.3 35.1"/>
<path d="M92.3,35.0918 L97.8,51.7748 C98.3,53.2888 97.8,54.9618 96.5,55.9058 L49,89.9808 L92.3,35.0918 Z" fill="#FCA326"/>
<path d="M92.3,35.0918 L67,35.0918 L77.9,2.0208 C78.5,0.3278 80.9,0.3278 81.5,2.0208 L92.3,35.0918 Z" fill="#E24329"/>
</g>
</svg>
