<?xml version="1.0" encoding="UTF-8"?>
<svg xmlns="http://www.w3.org/2000/svg" viewBox="-2 -9 14 10">

<style>
line, polyline {
  stroke: black;
  stroke-width: 0.28%; /* 1px/360px */
}
polyline {
  fill: none;
}
text {
  font-family: serif;
  font-size: 0.8px;
  text-anchor: middle;
}
.variable {
  font-style: italic;
}
</style>

<defs>
  <marker id="arrowhead" viewBox="0 -0.3 1 0.6"
    refX="1" refY="0"
    markerUnits="userSpaceOnUse"
    markerWidth="1" markerHeight="0.35"
    orient = "auto-start-reverse">
    <path d="M 0, -0.3 L 0, 0.3 L 1, 0 z"/>
  </marker>
</defs>

<line x1="0" y1="0" x2="11" y2="0"/>
<text x="11" y="0" dx="0.85em" dy="0.3em" class="variable">x</text>

<line x1="0" y1="0" x2="0" y2="-8"/>
<text x="0" y="-8" dy="-0.7em" class="variable">y</text>

<!-- (trajectory) -->
<polyline points="
0,-0
0.245,-0.486
0.48,-0.944
0.706,-1.38
0.924,-1.78
1.13,-2.17
1.34,-2.54
1.53,-2.88
1.72,-3.21
1.91,-3.52
2.09,-3.81
2.26,-4.09
2.44,-4.35
2.6,-4.59
2.77,-4.83
2.93,-5.05
3.08,-5.26
3.23,-5.45
3.39,-5.63
3.53,-5.81
3.68,-5.97
3.82,-6.12
3.96,-6.26
4.1,-6.38
4.24,-6.5
4.37,-6.61
4.5,-6.71
4.63,-6.8
4.76,-6.88
4.89,-6.95
5.02,-7.02
5.14,-7.07
5.26,-7.11
5.39,-7.15
5.51,-7.18
5.63,-7.2
5.75,-7.21
5.86,-7.21
5.98,-7.2
6.1,-7.19
6.21,-7.17
6.32,-7.14
6.44,-7.1
6.55,-7.05
6.66,-7
6.77,-6.94
6.88,-6.87
6.98,-6.79
7.09,-6.71
7.19,-6.62
7.3,-6.52
7.4,-6.41
7.5,-6.3
7.6,-6.18
7.7,-6.05
7.8,-5.92
7.89,-5.78
7.99,-5.64
8.08,-5.48
8.17,-5.33
8.27,-5.16
8.36,-4.99
8.44,-4.82
8.53,-4.64
8.62,-4.45
8.7,-4.26
8.78,-4.06
8.86,-3.86
8.94,-3.66
9.02,-3.45
9.1,-3.23
9.18,-3.01
9.25,-2.79
9.32,-2.56
9.39,-2.33
9.46,-2.1
9.53,-1.86
9.6,-1.62
9.67,-1.37
9.73,-1.12
9.8,-0.87
9.86,-0.615
9.92,-0.357
9.98,-0.0964
10,-3.29e-16
"/>

<line x1="0" y1="0" x2="1" y2="-2" marker-end = "url(#arrowhead)"/>
<text x="1" y="-2" dx="-0.4em" dy="-0.3em" class="variable">u</text>
<text x="0" y="0" dx="1.17em" dy="-0.5em" class="variable">ϕ</text>

<text x="10" y="0" dy="1.2em" class="variable">R</text>

</svg>
