<?xml version="1.0" encoding="UTF-8"?>
<svg viewBox="0 0 100 92" width="2.5em" xmlns="http://www.w3.org/2000/svg">
<polygon fill="#E24329" points="49 90.2 49 90.2 67.1 35.3 30.9 35.3"/>
<polygon fill="#FC6D26" points="49 90.2 30.9 35.3 5.7 35.3"/>
<path d="M5.7,35.3 L0.2,52 C-0.3,53.5 0.2,55.2 1.5,56.2 L49,90.2 L5.7,35.3 Z" fill="#FCA326"/>
<path d="M5.7,35.3 L31,35.3 L20,2.3 C19.5,0.5 17.1,0.6 16.5,2.3 L5.7,35.3 Z" fill="#E24329"/>
<polygon fill="#FC6D26" points="49 90.2 67 35.2 92.3 35.3"/>
<path d="M92.3,35.3 L97.8,52 C98.3,53.6 97.8,55.2 96.5,56.1 L49,90.2 L92.3,35.3 Z" fill="#FCA326"/>
<path d="M92.3,35.3 L67,35.3 L77.9,2.3 C78.5,0.6 80.9,0.6 81.5,2.3 L92.3,35.3 Z" fill="#E24329"/>
</svg>
