<?xml version="1.0" encoding="UTF-8"?>
<svg viewBox="-1 0 53 50" width="2.5em" xmlns="http://www.w3.org/2000/svg">
<path d="m4.86 40.1-2.53-11.15-2.52-11.06 7.16-8.94 7.05-8.95h11.47 11.37l7.16 8.95 7.16 8.94-2.63 11.06-2.53 11.15-10.21 4.95-10.32 4.95-10.31-4.95z" fill="#ac000e"/>
<path d="m36.86 0-2.1 1.47h-7.16l-2.11-1.47-2.1 1.47h-7.16l-2.21-1.47-.11 2.63-4.52 5.58-2.42.74-.21 2.63-4.43 5.58-2.52.73 1.89 1.69 1.58 7.05-.95 2.32 2 1.79 1.58 6.94-1.05 2.42 2.63-.42 6.42 3.16 1.27 2.21 2.63-.42 6.42 3.16 1.26 2.21 1.27-2.21 6.42-3.16 2.63.42 1.26-2.21 6.42-3.16 2.53.42-.95-2.42 1.58-6.94 1.9-1.79-.95-2.32 1.58-7.05 2-1.69-2.53-.73-4.42-5.58-.21-2.63-2.53-.74-4.42-5.58z" fill="#af080d"/>
<path d="m44.02 8.95-2.53-.74-1.58-.53-2.73-3.47-.11-1.58-.21-2.63-2.1 1.47-1.37.95h-4.42l-1.37-.95-2.11-1.47-2.1 1.47-1.37.95h-4.53l-1.26-.95-2.21-1.47-.11 2.63-.1 1.58-2.84 3.47-1.58.53-2.42.74-.21 2.63-.11 1.58-2.84 3.47-1.48.53-2.52.73 1.89 1.69 1.27 1.16.94 4.31-.63 1.58-.95 2.32 2 1.79 1.16 1.15.95 4.32-.53 1.47-1.05 2.42 2.63-.42 1.58-.21 4 1.9.84 1.47 1.27 2.21 2.63-.42 1.58-.21 4 1.9.84 1.47 1.26 2.21 1.27-2.21.84-1.47 4-1.9 1.58.21 2.63.42 1.26-2.21.74-1.47 4.1-1.9 1.58.21 2.53.42-.95-2.42-.63-1.47 1.05-4.32 1.16-1.15 1.9-1.79-.95-2.32-.53-1.58.95-4.31 1.16-1.16 2-1.69-2.53-.73-1.58-.53-2.73-3.47-.11-1.58z" fill="#b3100d"/>
<path d="m46.12 16.32-1.78-2.11v-1.05l-.11-1.58-.21-2.63-2.53-.74-1.58-.53-.94-.21-1.69-2.21-.1-1.05-.11-1.58-.21-2.63-2.1 1.47-1.37.95-.84.63h-2.74l-.84-.63-1.37-.95-2.11-1.47-2.1 1.47-1.37.95-.84.63h-2.84l-.85-.63-1.26-.95-2.21-1.47-.11 2.63-.1 1.58-.11 1.05-1.68 2.21-1.05.21-1.58.53-2.42.74-.21 2.63-.11 1.58-.11 1.05-1.68 2.11-1.05.31-1.48.53-2.52.73 1.89 1.69 1.27 1.16.73.63.63 2.74-.42.94-.63 1.58-.95 2.32 2 1.79 1.16 1.15.74.64.63 2.73-.42.95-.53 1.47-1.05 2.42 2.63-.42 1.58-.21 1.05-.21 2.53 1.27.42.84.84 1.47 1.27 2.21 2.63-.42 1.58-.21.95-.1 2.52 1.15.53.85.84 1.47 1.26 2.21 1.27-2.21.84-1.47.42-.85 2.53-1.15 1.05.1 1.58.21 2.63.42 1.26-2.21.74-1.47.53-.84 2.52-1.27 1.05.21 1.58.21 2.53.42-.95-2.42-.63-1.47-.32-.95.64-2.73.73-.64 1.16-1.15 1.9-1.79-.95-2.32-.53-1.58-.42-.94.63-2.74.74-.63 1.16-1.16 2-1.69-2.53-.73-1.58-.53z" fill="#b9200c"/>
<path d="m48.65 17.16-1.58-.53-4.95 1.16.85-.74 3.15-.73-1.78-2.11v-1.05l-.11-1.58-.21-2.63-2.53-.74-1.58-.53-.94-.21-1.69-2.21-1.47 2.85-.84.73 2.21-4.63-.11-1.58-.21-2.63-2.1 1.47-1.37.95-2.21 4.63v-1.16l1.37-2.84h-2.74l-.84-.63-1.37-.95-2.11-1.47-2.1 1.47-1.37.95-.84.63h-2.84l1.47 2.84v1.16l-2.32-4.63-1.26-.95-2.21-1.47-.11 2.63-.1 1.58 2.21 4.63-.95-.73-1.37-2.85-1.68 2.21-1.05.21-1.58.53-2.42.74-.21 2.63-.11 1.58-.11 1.05-1.68 2.11 3.16.73.84.74-5.05-1.16-1.48.53-2.52.73 1.89 1.69 1.27 1.16 4.94 1.15-1.05.22-3.16-.74.63 2.74-.42.94-.63 1.58-.95 2.32 2 1.79 1.16 1.15.74.64.63 2.73 2.53-2 1.15-.31-4.1 3.26-.53 1.47-1.05 2.42 2.63-.42 1.58-.21 4-3.15-.42.94-2.53 2 2.53 1.27.42.84.84 1.47 1.27 2.21 2.63-.42 1.58-.21.95-.1 2.52 1.15v-3.15l.53-1.06v5.06l.84 1.47 1.26 2.21 1.27-2.21.84-1.47v-5.06l.42 1.06v3.15l2.53-1.15 1.05.1 1.58.21 2.63.42 1.26-2.21.74-1.47.53-.84 2.52-1.27-2.52-2-.53-.94 4.1 3.15 1.58.21 2.53.42-.95-2.42-.63-1.47-4-3.26 1.16.31 2.52 2 .64-2.73.73-.64 1.16-1.15 1.9-1.79-.95-2.32-.53-1.58-.42-.94.63-2.74-3.16.74-1.15-.22 5.05-1.15 1.16-1.16 2-1.69z" fill="#ba220c"/>
<path d="m48.65 17.16-8 1.79 1.47-1.16.85-.74 3.15-.73-1.78-2.11v-1.05l-.11-1.58-.21-2.63-2.53-.74-1.58-.53-.94-.21-1.69-2.21-1.47 2.85-.84.73-1.48 1.16 3.58-7.37-.21-2.63-2.1 1.47-3.58 7.48v-1.9-1.16l1.37-2.84h-2.74l-.84-.63-1.37-.95-2.11-1.47-2.1 1.47-1.37.95-.84.63h-2.84l1.47 2.84v1.16 1.9l-3.58-7.48-2.21-1.47-.11 2.63 3.58 7.37-1.47-1.16-.95-.73-1.37-2.85-1.68 2.21-1.05.21-1.58.53-2.42.74-.21 2.63-.11 1.58-.11 1.05-1.68 2.11 3.16.73.84.74 1.48 1.16-8.01-1.79-2.52.73 1.89 1.69 8.11 1.89-1.9.42-1.05.22-3.16-.74.63 2.74-.42.94-.63 1.58-.95 2.32 2 1.79 1.16 1.15.74.64.63 2.73 2.53-2 1.15-.31 1.8-.32-6.43 5.05-1.05 2.42 2.63-.42 6.42-5.05-.84 1.69-.42.94-2.53 2 2.53 1.27.42.84.84 1.47 1.27 2.21 2.63-.42 1.58-.21.95-.1 2.52 1.15v-3.15l.53-1.06.84-1.68v8.21l1.26 2.21 1.27-2.21v-8.21l.84 1.68.42 1.06v3.15l2.53-1.15 1.05.1 1.58.21 2.63.42 1.26-2.21.74-1.47.53-.84 2.52-1.27-2.52-2-.53-.94-.74-1.69 6.42 5.05 2.53.42-.95-2.42-6.42-5.05 1.79.32 1.16.31 2.52 2 .64-2.73.73-.64 1.16-1.15 1.9-1.79-.95-2.32-.53-1.58-.42-.94.63-2.74-3.16.74-1.15-.22-1.79-.42 8-1.89 2-1.69z" fill="#bb240c"/>
<path d="m42.12 17.79.85-.74 3.15-.73-1.78-2.11v-1.05l-.11-1.58-.21-2.63-2.53-.74-1.58-.53-.94-.21-1.69-2.21-1.47 2.85-.84.73-1.48 1.16-2.31 1.89v-2.94-1.9-1.16l1.37-2.84h-2.74l-.84-.63-1.37-.95-2.11-1.47-2.1 1.47-1.37.95-.84.63h-2.84l1.47 2.84v1.16 1.9 2.94l-2.32-1.89-1.47-1.16-.95-.73-1.37-2.85-1.68 2.21-1.05.21-1.58.53-2.42.74-.21 2.63-.11 1.58-.11 1.05-1.68 2.11 3.16.73.84.74 1.48 1.16 2.31 1.89-2.84.63-1.9.42-1.05.22-3.16-.74.63 2.74-.42.94-.63 1.58-.95 2.32 2 1.79 1.16 1.15.74.64.63 2.73 2.53-2 1.15-.31 1.8-.32 2.84-.74-1.27 2.74-.84 1.69-.42.94-2.53 2 2.53 1.27.42.84.84 1.47 1.27 2.21 2.63-.42 1.58-.21.95-.1 2.52 1.15v-3.15l.53-1.06.84-1.68 1.26-2.74 1.27 2.74.84 1.68.42 1.06v3.15l2.53-1.15 1.05.1 1.58.21 2.63.42 1.26-2.21.74-1.47.53-.84 2.52-1.27-2.52-2-.53-.94-.74-1.69-1.26-2.74 2.84.74 1.79.32 1.16.31 2.52 2 .64-2.73.73-.64 1.16-1.15 1.9-1.79-.95-2.32-.53-1.58-.42-.94.63-2.74-3.16.74-1.15-.22-1.79-.42-2.84-.63 2.31-1.89z" fill="#bb260b"/>
<path d="m39.91 7.68-4.94 1.16-1.48 1.16-2.31 1.89v-2.94-1.9l-2.21-4.63-1.37-.95-2.11-1.47-2.1 1.47-1.37.95-2.21 4.63v1.9 2.94l-2.32-1.89-1.47-1.16-5.05-1.16-1.58.53-2.42.74-.21 2.63-.11 1.58 2.21 4.63 1.48 1.16 2.31 1.89-2.84.63-1.9.42-4 3.16-.63 1.58-.95 2.32 2 1.79 1.16 1.15 5.05 1.06 1.8-.32 2.84-.74-1.27 2.74-.84 1.69v5.05l.84 1.47 1.27 2.21 2.63-.42 1.58-.21 4-3.16.84-1.68 1.26-2.74 1.27 2.74.84 1.68 4 3.16 1.58.21 2.63.42 1.26-2.21.74-1.47v-5.05l-.74-1.69-1.26-2.74 2.84.74 1.79.32 5.05-1.06 1.16-1.15 1.9-1.79-.95-2.32-.53-1.58-4.1-3.16-1.79-.42-2.84-.63 2.31-1.89 1.47-1.16 2.22-4.63-.11-1.58-.21-2.63-2.53-.74z" fill="#bd2b0b"/>
<path d="m31.18 8.95-3.58-7.48-2.11-1.47-2.1 1.47-3.58 7.48v2.94l-2.32-1.89-8.1-1.79-2.42.74-.21 2.63 3.58 7.37 2.31 1.89-2.84.63-6.53 5.16-.95 2.32 2 1.79 8.01 1.89 2.84-.74-1.27 2.74v8.21l1.27 2.21 2.63-.42 6.42-5.05 1.26-2.74 1.27 2.74 6.42 5.05 2.63.42 1.26-2.21v-8.21l-1.26-2.74 2.84.74 8-1.89 1.9-1.79-.95-2.32-6.42-5.16-2.84-.63 2.31-1.89 3.58-7.37-.21-2.63-2.53-.74-8 1.79-2.31 1.89z" fill="#c1330b"/>
<path d="m2.33 28.95 12.85 2.94v13.16l10.31-8.21 10.32 8.21v-13.16l12.74-2.94-10.21-8.11 5.68-11.89-12.84 2.94-5.69-11.89-5.68 11.89-12.84-2.94 5.68 11.89z" fill="#c74209"/>
<path d="m25.49 0-.73 4.42-3.58 7.47h-1.37l-.95 1.06-8-1.79-3.89-2.21 3.05 3.37 3.47 7.36-.84 1.16.32 1.37-6.43 5.05-4.21 1.69 4.53-.21 8 1.79.32 1.36 1.26.64v8.21l-1.26 4.31 2.63-3.68 6.42-5.16 1.26.63 1.27-.63 6.42 5.16 2.63 3.68-1.37-4.31v-8.21l1.37-.64.31-1.36 8-1.79 4.43.21-4.11-1.69-6.42-5.05.32-1.37-.95-1.16 3.58-7.36 3.05-3.37-3.9 2.21-8 1.79-.94-1.06h-1.37l-3.58-7.47z" fill="#cf5508"/>
<path d="m31.18 11.89h-1.37-.95l-2.21-4.63-.42-2.84-.74-4.42-.73 4.42-.42 2.84-2.22 4.63h-.94-1.37l-.95 1.06-.52.73-5.06-1.15-2.42-1.37-3.89-2.21 3.05 3.37 1.89 2 2.21 4.63-.63.73-.84 1.16.32 1.37.21.84-4 3.16-2.64 1.05-4.21 1.69 4.53-.21 2.84-.21 4.95 1.15.21.85.32 1.36 1.26.64.84.42v5.15l-.84 2.64-1.26 4.31 2.63-3.68 1.58-2.32 4-3.15.84.31 1.26.63 1.27-.63.84-.31 4 3.15 1.58 2.32 2.63 3.68-1.37-4.31-.74-2.64v-5.15l.74-.42 1.37-.64.31-1.36.22-.85 4.94-1.15 2.84.21 4.43.21-4.11-1.69-2.63-1.05-4-3.16.21-.84.32-1.37-.95-1.16-.53-.73 2.21-4.63 1.9-2 3.05-3.37-3.9 2.21-2.52 1.37-4.95 1.15-.53-.73z" fill="#d36107"/>
<path d="m36.12 13.37-3.15.74-.32-.43-.53-.73-.94-1.06h-1.37-.95-.52l-1.37-2.94-.32-1.69-.42-2.84-.74-4.42-.73 4.42-.42 2.84-.32 1.69-1.37 2.94h-.53-.94-1.37l-.95 1.06-.52.73-.32.43-3.16-.74-1.58-.84-2.42-1.37-3.89-2.21 3.05 3.37 1.89 2 1.16 1.36 1.37 2.85-.32.42-.63.73-.84 1.16.32 1.37.21.84.1.53-2.52 2-1.58.63-2.64 1.05-4.21 1.69 4.53-.21 2.84-.21 1.69-.11 3.15.74.11.52.21.85.32 1.36 1.26.64.84.42.53.21v3.26l-.53 1.68-.84 2.64-1.26 4.31 2.63-3.68 1.58-2.32.95-1.37 2.52-2 .53.22.84.31 1.26.63 1.27-.63.84-.31.42-.22 2.53 2 1.05 1.37 1.58 2.32 2.63 3.68-1.37-4.31-.74-2.64-.52-1.68v-3.26l.52-.21.74-.42 1.37-.64.31-1.36.22-.85.1-.52 3.05-.74 1.79.11 2.84.21 4.43.21-4.11-1.69-2.63-1.05-1.58-.63-2.53-2 .11-.53.21-.84.32-1.37-.95-1.16-.53-.73-.31-.42 1.36-2.85 1.16-1.36 1.9-2 3.05-3.37-3.9 2.21-2.52 1.37z" fill="#dc7606"/>
<path d="m40.12 11.16-2.52 1.37-7.16 5.79 1.16-1.27 4.52-3.68-3.15.74-.32-.43-.53-.73-.94-1.06h-1.37-.95-.52l-1.37-2.94v5.79l-.32 1.79v-9.27l-.42-2.84-.74-4.42-.73 4.42-.42 2.84v9.27l-.32-1.79v-5.79l-1.37 2.94h-.53-.94-1.37l-.95 1.06-.52.73-.32.43-3.16-.74 4.53 3.68 1.16 1.27-7.27-5.79-2.42-1.37-3.89-2.21 3.05 3.37 1.89 2 7.16 5.79-1.47-.85-4.53-3.58 1.37 2.85-.32.42-.63.73-.84 1.16.32 1.37.21.84.1.53-2.52 2 5.68-1.26 1.79-.11-9.05 2-2.64 1.05-4.21 1.69 4.53-.21 2.84-.21 8.95-2.11-1.58.74-5.68 1.26 3.15.74.11.52.21.85.32 1.36 1.26.64.84.42.53.21v3.26l2.53-5.26.94-1.48-4 8.42-.84 2.64-1.26 4.31 2.63-3.68 1.58-2.32 4-8.31-.53 1.68-2.52 5.26 2.52-2 .53.22.84.31 1.26.63 1.27-.63.84-.31.42-.22 2.53 2-2.53-5.26-.42-1.68 4 8.31 1.58 2.32 2.63 3.68-1.37-4.31-.74-2.64-4-8.42.95 1.48 2.53 5.26v-3.26l.52-.21.74-.42 1.37-.64.31-1.36.22-.85.1-.52 3.05-.74-5.58-1.26-1.68-.74 9.05 2.11 2.84.21 4.43.21-4.11-1.69-2.63-1.05-9.05-2 1.79.11 5.68 1.26-2.53-2 .11-.53.21-.84.32-1.37-.95-1.16-.53-.73-.31-.42 1.36-2.85-4.52 3.58-1.58.85 7.26-5.79 1.9-2 3.05-3.37z" fill="#dc7606"/>
<path d="m40.12 11.16-11.57 9.26 1.89-2.1 1.16-1.27 4.52-3.68-3.15.74-.32-.43-.53-.73-.94-1.06h-1.37-.95-.52l-1.37-2.94v5.79l-.32 1.79-.42 2.73v-14.84l-.74-4.42-.73 4.42v14.84l-.42-2.73-.32-1.79v-5.79l-1.37 2.94h-.53-.94-1.37l-.95 1.06-.52.73-.32.43-3.16-.74 4.53 3.68 1.16 1.27 1.89 2.1-11.58-9.26-3.89-2.21 3.05 3.37 11.58 9.15-2.53-1.36-1.47-.85-4.53-3.58 1.37 2.85-.32.42-.63.73-.84 1.16.32 1.37.21.84.1.53-2.52 2 5.68-1.26 1.79-.11 2.74-.21-14.43 3.26-4.21 1.69 4.53-.21 14.42-3.37-2.63 1.05-1.58.74-5.68 1.26 3.15.74.11.52.21.85.32 1.36 1.26.64.84.42.53.21v3.26l2.53-5.26.94-1.48 1.58-2.31-6.42 13.37-1.26 4.31 2.63-3.68 6.42-13.37-.84 2.74-.53 1.68-2.52 5.26 2.52-2 .53.22.84.31 1.26.63 1.27-.63.84-.31.42-.22 2.53 2-2.53-5.26-.42-1.68-.84-2.74 6.42 13.37 2.63 3.68-1.37-4.31-6.42-13.37 1.68 2.31.95 1.48 2.53 5.26v-3.26l.52-.21.74-.42 1.37-.64.31-1.36.22-.85.1-.52 3.05-.74-5.58-1.26-1.68-.74-2.53-1.05 14.42 3.37 4.43.21-4.11-1.69-14.42-3.26 2.74.21 1.79.11 5.68 1.26-2.53-2 .11-.53.21-.84.32-1.37-.95-1.16-.53-.73-.31-.42 1.36-2.85-4.52 3.58-1.58.85-2.42 1.36 11.58-9.15 3.05-3.37z" fill="#dc7606"/>
<path d="m14.86 30.53.32 1.36 1.26.64.84.42.53.21v3.26l2.53-5.26.94-1.48 1.58-2.31 2.63-3.69-4.21 1.69-2.63 1.05-1.58.74-5.68 1.26 3.15.74.11.52z" fill="#e38805"/>
<path d="m13.49 19.68-.84 1.16.32 1.37.21.84.1.53-2.52 2 5.68-1.26 1.79-.11 2.74-.21 4.52-.32-3.89-2.21-2.53-1.36-1.47-.85-4.53-3.58 1.37 2.85-.32.42z" fill="#e38805"/>
<path d="m24.23 36.21 1.26.63 1.27-.63.84-.31.42-.22 2.53 2-2.53-5.26-.42-1.68-.84-2.74-1.27-4.32-1.26 4.32-.84 2.74-.53 1.68-2.52 5.26 2.52-2 .53.22z" fill="#e38805"/>
<path d="m21.18 11.89h-1.37l-.95 1.06-.52.73-.32.43-3.16-.74 4.53 3.68 1.16 1.27 1.89 2.1 3.05 3.26-.73-4.42-.42-2.73-.32-1.79v-5.79l-1.37 2.94h-.53z" fill="#e38805"/>
<path d="m34.44 32.53 1.37-.64.31-1.36.22-.85.1-.52 3.05-.74-5.58-1.26-1.68-.74-2.53-1.05-4.21-1.69 2.53 3.69 1.68 2.31.95 1.48 2.53 5.26v-3.26l.52-.21z" fill="#e38805"/>
<path d="m32.12 12.95-.94-1.06h-1.37-.95-.52l-1.37-2.94v5.79l-.32 1.79-.42 2.73-.74 4.42 3.06-3.26 1.89-2.1 1.16-1.27 4.52-3.68-3.15.74-.32-.43z" fill="#e38805"/>
<path d="m32.76 24.21 1.79.11 5.68 1.26-2.53-2 .11-.53.21-.84.32-1.37-.95-1.16-.53-.73-.31-.42 1.36-2.85-4.52 3.58-1.58.85-2.42 1.36-3.9 2.21 4.53.32z" fill="#e38805"/>
<path d="m17.28 32.95 4-3.27 1.58-2.31 2.63-3.69-4.21 1.69-2.63 1.05-4 3.26.21.85.32 1.36 1.26.64z" fill="#e89304"/>
<path d="m13.18 23.05 5.05 1.16 2.74-.21 4.52-.32-3.89-2.21-2.53-1.36-4.95-1.16-.63.73-.84 1.16.32 1.37z" fill="#e89304"/>
<path d="m27.6 35.9v-5.16l-.84-2.74-1.27-4.32-1.26 4.32-.84 2.74v5.16l.84.31 1.26.63 1.27-.63z" fill="#e89304"/>
<path d="m18.34 13.68 2.21 4.64 1.89 2.1 3.05 3.26-.73-4.42-.42-2.73-2.22-4.64h-.94-1.37l-.95 1.06z" fill="#e89304"/>
<path d="m36.34 29.68-4.11-3.26-2.53-1.05-4.21-1.69 2.53 3.69 1.68 2.31 4 3.27.74-.42 1.37-.64.31-1.36z" fill="#e89304"/>
<path d="m28.86 11.89-2.21 4.64-.42 2.73-.74 4.42 3.06-3.26 1.89-2.1 2.21-4.64-.53-.73-.94-1.06h-1.37z" fill="#e89304"/>
<path d="m29.39 21.47 2.42-1.36 5.05-1.16.53.73.95 1.16-.32 1.37-.21.84-5.05 1.16-2.74-.21-4.53-.32z" fill="#e89304"/>
<path d="m6.54 14.21 1.48 2.84-3.16-.73z" fill="#efa403"/>
<path d="m17.07 27.16-2.53 2-3.15-.74z" fill="#efa403"/>
<path d="m13.7 5.26 1.37 2.85-3.05-.64z" fill="#efa403"/>
<path d="m17.6 19.26-3.16-.73-1.37-2.85z" fill="#efa403"/>
<path d="m16.44 24.32-5.68 1.26 2.52-2z" fill="#efa403"/>
<path d="m20.34 31.16-2.53 5.26v-3.26z" fill="#efa403"/>
<path d="m19.39 17.05-4.53-3.68 3.16.74z" fill="#efa403"/>
<path d="m21.18 3.05-1.37 2.84-1.47-2.84z" fill="#efa403"/>
<path d="m22.86 32.42v3.26l-2.52 2z" fill="#efa403"/>
<path d="m28.02 32.42 2.53 5.26-2.53-2z" fill="#efa403"/>
<path d="m32.55 3.05-1.37 2.84-1.37-2.84z" fill="#efa403"/>
<path d="m38.97 7.47-3.16.64 1.47-2.85z" fill="#efa403"/>
<path d="m46.12 16.32-3.15.73 1.37-2.84z" fill="#efa403"/>
<path d="m21.28 25.37-6.42 5.16.32 1.36 1.26.64 6.42-5.16 2.63-3.69z" fill="#efa403"/>
<path d="m21.6 21.47-8.11-1.79-.84 1.16.32 1.37 8 1.79 4.52-.32z" fill="#efa403"/>
<path d="m24.23 28v8.21l1.26.63 1.27-.63v-8.21l-1.27-4.32z" fill="#efa403"/>
<path d="m24.76 19.26-3.58-7.37h-1.37l-.95 1.06 3.58 7.47 3.05 3.26z" fill="#efa403"/>
<path d="m28.02 27.37 6.42 5.16 1.37-.64.31-1.36-6.42-5.16-4.21-1.69z" fill="#efa403"/>
<path d="m28.55 20.42 3.57-7.47-.94-1.06h-1.37l-3.58 7.37-.74 4.42z" fill="#efa403"/>
<path d="m38.34 20.84-.32 1.37-8 1.79-4.53-.32 3.9-2.21 8-1.79z" fill="#efa403"/>
<g fill="#fff">
<path d="m4.33 24.11 2.53-2-3.16-.74z"/>
<path d="m6.86 35.26 2.53-2-3.16-.73z"/>
<path d="m4.86 16.32 3.16.73-1.48-2.84z"/>
<path d="m12.65 40.53v-3.27l-2.53 2z"/>
<path d="m12.02 7.47 3.05.64-1.37-2.85z"/>
<path d="m13.28 23.58-2.52 2 5.68-1.26z"/>
<path d="m11.39 28.42 3.15.74 2.53-2z"/>
<path d="m13.07 15.68 1.37 2.85 3.16.73z"/>
<path d="m18.02 14.11-3.16-.74 4.53 3.68z"/>
<path d="m17.81 33.16v3.26l2.53-5.26z"/>
<path d="m22.86 45.47v-3.15l-2.52 2z"/>
<path d="m18.34 3.05 1.47 2.84 1.37-2.84z"/>
<path d="m20.34 37.68 2.52-2v-3.26z"/>
<path d="m24.02 8.95-1.37 2.94 1.37 2.85z"/>
<path d="m28.34 11.89-1.37-2.94v5.79z"/>
<path d="m30.55 44.32-2.53-2v3.15z"/>
<path d="m28.02 35.68 2.53 2-2.53-5.26z"/>
<path d="m33.18 36.42v-3.26l-2.53-2z"/>
<path d="m36.12 13.37-3.15.74-1.37 2.94z"/>
<path d="m29.81 3.05 1.37 2.84 1.37-2.84z"/>
<path d="m36.55 18.53 1.36-2.85-4.52 3.58z"/>
<path d="m36.44 29.16 3.05-.74-5.58-1.26z"/>
<path d="m40.23 25.58-2.53-2-3.15.74z"/>
<path d="m40.86 39.26-2.52-2v3.27z"/>
<path d="m37.28 5.26-1.47 2.85 3.16-.64z"/>
<path d="m44.76 32.53-3.16.73 2.52 2z"/>
<path d="m44.34 14.21-1.37 2.84 3.15-.73z"/>
<path d="m47.28 21.37-3.16.74 2.53 2z"/>
</g>
</svg>
