<?xml version="1.0" encoding="UTF-8"?>
<svg xmlns="http://www.w3.org/2000/svg" viewBox="-1 -4 9.2 5">

<style>
line {
  stroke: black;
  vector-effect: non-scaling-stroke;
}
text {
  font-family: sans-serif;
  font-size: 0.33px;
  text-anchor: middle;
}
line.colour-r {
  stroke: crimson;
}
line.colour-b {
  stroke: mediumblue;
}
.italicised {
  font-style: italic;
}
.thick {
  stroke-width: 3;
}
</style>

<text x="0" y="-3.5" dx="-1em" dy="0.3em" lang="zh-Hant">甲</text>
<text x="0" y="-3.5" dx="-2.25em" dy="0.3em" class="italicised">A</text>

<text x="0" y="0" dy="1.3em" lang="zh-Hant">乙</text>
<text x="0" y="0" dy="2.8em" class="italicised">B</text>

<text x="3" y="-1" dx="0.4em" dy="-0.5em" lang="zh-Hant">丙</text>
<text x="3" y="-1" dx="0.4em" dy="-1.7em" class="italicised">C</text>

<text x="3" y="0" dy="1.3em" lang="zh-Hant">丁</text>
<text x="3" y="0" dy="2.8em" class="italicised">D</text>

<text x="4.2" y="0" dy="1.3em" lang="zh-Hant">戊</text>
<text x="4.2" y="0" dy="2.8em" class="italicised">E</text>

<text x="5.5" y="-1" dx="0.4em" dy="-0.5em" lang="zh-Hant">己</text>
<text x="5.5" y="-1" dx="0.4em" dy="-1.7em" class="italicised">F</text>

<text x="5.5" y="0" dy="1.3em" lang="zh-Hant">庚</text>
<text x="5.5" y="0" dy="2.8em" class="italicised">G</text>

<text x="7.7" y="0" dy="1.3em" lang="zh-Hant">辛</text>
<text x="7.7" y="0" dy="2.8em" class="italicised">H</text>

<text x="6.7" y="0" dy="1.3em" lang="zh-Hant">壬</text>
<text x="6.7" y="0" dy="2.8em" class="italicised">I</text>

<text x="0" y="-1" dx="-1em" dy="0.3em" lang="zh-Hant">辰</text>
<text x="0" y="-1" dx="-2.25em" dy="0.3em" class="italicised">O</text>

<line x1="0" y1="-3.5" x2="0" y2="0"/> <!-- AB -->
<line x1="0" y1="0" x2="7.7" y2="0"/>  <!-- BH -->
<line x1="3" y1="-1" x2="3" y2="0"/> <!-- CD -->

<line x1="5.5" y1="-1" x2="5.5" y2="0"/> <!-- FG -->
<line x1="5.5" y1="-1" x2="6.7" y2="0"/> <!-- FI -->

<line x1="0" y1="-3.5" x2="4.2" y2="0"/> <!-- ACE -->
<line x1="0" y1="-3.5" x2="7.7" y2="0"/> <!-- AFH -->
<line x1="0" y1="-1" x2="5.5" y2="-1"/> <!-- OF -->

<line x1="0" y1="-3.5" x2="0" y2="-1" class="thick colour-b"/> <!-- AO -->
<line x1="0" y1="-1" x2="3" y2="-1" class="thick colour-b"/> <!-- OC -->
<line x1="3" y1="-1" x2="0" y2="-3.5" class="thick colour-b"/> <!-- CA -->

<line x1="3" y1="-1" x2="5.5" y2="-1" class="thick colour-r"/> <!-- CF -->

</svg>
