<?xml version="1.0" encoding="UTF-8"?>
<svg xmlns="http://www.w3.org/2000/svg" viewBox="0 -7 12 7">
<style>
line {
stroke: black;
vector-effect: non-scaling-stroke;
}
text {
font-family: sans-serif;
text-anchor: middle;
}
</style>
<g transform="translate(1 0.15)">
<text font-size="0.4" y="-6" dy="-1em">pitch</text>
<text font-size="0.4" y="-6" dy="0.2em">numeral</text>
<text font-size="0.4" y="-5">5</text>
<text font-size="0.4" y="-4">4</text>
<text font-size="0.4" y="-3">3</text>
<text font-size="0.4" y="-2">2</text>
<text font-size="0.4" y="-1">1</text>
</g>
<g transform="translate(5.2 0)">
<text font-size="0.4" y="-5" dy="-0.4em">tone 1 <tspan lang="zh-Hant">陰平</tspan></text>
<line x1="-3" y1="-5" x2="3" y2="-5"/>
<text font-size="0.4" y="-4" dx="-0.4" dy="-0.4em" transform="rotate(-18.4 0 -4)">tone 2 <tspan lang="zh-Hant">陰上</tspan></text>
<line x1="-3" y1="-3" x2="3" y2="-5"/>
<text font-size="0.4" y="-3" dx="0.5" dy="-0.4em">tone 3 <tspan lang="zh-Hant">陰去</tspan></text>
<line x1="-3" y1="-3" x2="3" y2="-3"/>
<text font-size="0.4" y="-1" dy="-0.4em">tone 4 <tspan lang="zh-Hant">陽平</tspan></text>
<line x1="-3" y1="-1" x2="3" y2="-1"/>
<text font-size="0.4" y="-2.5" dx="-1.8" dy="-0.4em" transform="rotate(-9.5 0 -2.5)">tone 5 <tspan lang="zh-Hant">陽上</tspan></text>
<line x1="-3" y1="-2" x2="3" y2="-3"/>
<text font-size="0.4" y="-2" dx="1.8" dy="-0.4em">tone 6 <tspan lang="zh-Hant">陽去</tspan></text>
<line x1="-3" y1="-2" x2="3" y2="-2"/>
</g>
<g transform="translate(10.4 0)">
<text font-size="0.4" y="-5" dy="-0.4em">tone 7 <tspan lang="zh-Hant">高陰入</tspan></text>
<line x1="-1.2" y1="-5" x2="1.2" y2="-5"/>
<text font-size="0.4" y="-3" dy="-0.4em">tone 8 <tspan lang="zh-Hant">低陰入</tspan></text>
<line x1="-1.2" y1="-3" x2="1.2" y2="-3"/>
<text font-size="0.4" y="-2" dy="-0.4em">tone 9 <tspan lang="zh-Hant">陽入</tspan></text>
<line x1="-1.2" y1="-2" x2="1.2" y2="-2"/>
</g>
</svg>
