<?xml version="1.0" encoding="UTF-8"?>
<svg xmlns="http://www.w3.org/2000/svg" viewBox="-0.5 -0.5 10 10" width="360px">

<style>
line {
  stroke: black;
  vector-effect: non-scaling-stroke;
}
path {
  fill-rule: evenodd;
}
text {
  dominant-baseline: central;
  font-family: serif;
  font-size: 0.5px;
  text-anchor: middle;
}
.odd-layer {
  fill: yellow;
}
.even-layer {
  fill: white;
}
</style>

<path class="odd-layer" d="M0,0 L0,9 L9,9 L9,0 Z M1,1 L1,8 L8,8 L8,1 Z"/>
<path class="even-layer" d="M1,1 L1,8 L8,8 L8,1 Z M2,2 L2,7 L7,7 L7,2 Z"/>
<path class="odd-layer" d="M2,2 L2,7 L7,7 L7,2 Z M3,3 L3,6 L6,6 L6,3 Z"/>
<path class="even-layer" d="M3,3 L3,6 L6,6 L6,3 Z M4,4 L4,5 L5,5 L5,4 Z"/>
<path class="odd-layer" d="M4,4 L4,5 L5,5 L5,4 Z"/>

<line x1="0" y1="0" x2="0" y2="9"/>
<line x1="1" y1="0" x2="1" y2="9"/>
<line x1="2" y1="0" x2="2" y2="9"/>
<line x1="3" y1="0" x2="3" y2="9"/>
<line x1="4" y1="0" x2="4" y2="9"/>
<line x1="5" y1="0" x2="5" y2="9"/>
<line x1="6" y1="0" x2="6" y2="9"/>
<line x1="7" y1="0" x2="7" y2="9"/>
<line x1="8" y1="0" x2="8" y2="9"/>
<line x1="9" y1="0" x2="9" y2="9"/>

<line x1="0" y1="0" x2="9" y2="0"/>
<line x1="0" y1="1" x2="9" y2="1"/>
<line x1="0" y1="2" x2="9" y2="2"/>
<line x1="0" y1="3" x2="9" y2="3"/>
<line x1="0" y1="4" x2="9" y2="4"/>
<line x1="0" y1="5" x2="9" y2="5"/>
<line x1="0" y1="6" x2="9" y2="6"/>
<line x1="0" y1="7" x2="9" y2="7"/>
<line x1="0" y1="8" x2="9" y2="8"/>
<line x1="0" y1="9" x2="9" y2="9"/>

<text x="4.5" y="4.5">1</text>
<text x="5.5" y="3.5">8</text>
<text x="6.5" y="2.5">16</text>
<text x="7.5" y="1.5">24</text>
<text x="8.5" y="0.5">32</text>

</svg>
